# xmcd
# Copyright (C) 1995-1998 Ti Kan
#
# Track frame offsets:
#       183
#       14893
#       25940
#       40363
#       55048
#       69568
#       84205
#       100548
#       112758
#       125128
#       136748
#       146633
#       159288
#       172085
#       182348
#       194845
#
# Disc length: 2757 seconds
#
# Revision: 0
# Processed by: cddbd v1.5.1PL0 Copyright (c) Steve Scherf et al.
# Submitted via: CD-Transfer v1.0
#
DISCID=d70ac310
DTITLE=Various Artist - 
DYEAR=93
DGENRE=
TTITLE0=The Kinks    Waterloo sunset
TTITLE1=The Lemon Pipers    Green Tambourine
TTITLE2=The Moody Blues      Go Now
TTITLE3=Long John Baldry     Let the heartache begin
TTITLE4=Dave Davies     Death of a clown
TTITLE5=P.P. Arnold     First cut is the deepest
TTITLE6=The Flowerpot Men     Let's go to San Francisco
TTITLE7=Lou Christie     I'm gonna make you mine
TTITLE8=Donovan    Colours
TTITLE9=The Rockin' Berries    He's in town
TTITLE10=Status Quo     Ice in the sun
TTITLE11=The Small Faces    Itchycoo Park
TTITLE12=Amer Corner    Half as nice
TTITLE13=The Searchers     Don't throw your love away
TTITLE14=The Tremeloes    Suddenly you love me
TTITLE15=Sandie Shaw     Long Live Love
EXTD=
EXTT0=
EXTT1=
EXTT2=
EXTT3=
EXTT4=
EXTT5=
EXTT6=
EXTT7=
EXTT8=
EXTT9=
EXTT10=
EXTT11=
EXTT12=
EXTT13=
EXTT14=
EXTT15=
PLAYORDER=
